PathFileType	4	(X/Y/Z)	C:/Users/beibeiliu/ov580/test_trc/User2\sequence.41_training_dense_left.trc
DataRate	CameraRate	NumFrames	NumMarkers	Units	OrigDataRate	OrigDataStartFrame	OrigNumFrames
120	120	15	19	mm	120	98	170
Frame#	Time	ThumbCMC			ThumbMCP			ThumbIP			ThumbTip			IndexMCP			IndexPIP			IndexTip			MiddleMCP			MiddlePIP			MiddleTip			RingMCP			RingPIP			RingTip			PinkyMCP			PinkyPIP			PinkyTip			BackHand1			BackHand2			BackHand3	
		X0	Y0	Z0	X1	Y1	Z1	X2	Y2	Z2	X3	Y3	Z3	X4	Y4	Z4	X5	Y5	Z5	X6	Y6	Z6	X7	Y7	Z7	X8	Y8	Z8	X9	Y9	Z9	X10	Y10	Z10	X11	Y11	Z11	X12	Y12	Z12	X13	Y13	Z13	X14	Y14	Z14	X15	Y15	Z15	X16	Y16	Z16	X17	Y17	Z17	X18	Y18	Z18	
97	0.808333	-243.891	22.3848	-20.7589	-236.093	48.8019	-42.0396	-212.402	60.3611	-64.6488	-184.082	55.5879	-79.6285	-202.981	17.0506	-94.4623	-171.969	38.3386	-95.6148	-176.359	48.5355	-60.0633	-180.466	-0.085716	-92.4879	-153.799	26.7962	-87.8721	-163.998	36.2957	-51.3128	-167.135	-10.4152	-84.5163	-143.682	9.95446	-78.0785	-157.016	20.0254	-45.1449	-160.63	-25.6674	-65.9263	-139.734	1.80843	-66.7024	-147.038	16.3022	-37.7169	-210.715	-34.9521	-43.7588	-226.235	-44.1179	-12.0941	-239.319	-13.7135	-38.6655	
98	0.816667	-249.851	25.4387	-20.9376	-238.432	56.1475	-37.6012	-210.723	69.4991	-61.6736	-185.192	62.1903	-69.2889	-206.457	13.6604	-94.4201	-177.966	33.4133	-103.993	-170.462	50.7513	-75.1337	-186.17	-0.524982	-95.7944	-160.137	22.4794	-101.224	-157.789	42.0655	-62.1339	-171.248	-12.7615	-86.127	-147.753	6.2148	-88.1632	-150.784	27.2084	-58.8948	-165.065	-24.7913	-65.7362	-143.466	-0.633485	-74.2902	-140.899	22.0187	-49.188	-210.039	-34.0633	-42.9102	-226.966	-44.2834	-12.4551	-244.698	-12.158	-35.0948	
99	0.825	-247.027	24.8581	-23.2157	-234.623	57.0875	-35.1188	-211.115	77.0502	-51.0994	-183.272	74.6049	-61.2979	-209.608	12.7575	-97.5648	-186.43	27.9943	-112.306	-168.158	52.1538	-89.9286	-191.751	-3.25241	-97.1365	-163.997	21.4479	-109.486	-151.539	47.6403	-80.9419	-174.697	-14.458	-89.0081	-154.873	6.28157	-98.2468	-147.855	33.2855	-75.8111	-170.17	-24.3611	-64.4773	-146.369	-6.65188	-81.3243	-137.379	20.4558	-69.1676	-210.866	-35.9237	-41.3659	-227.38	-42.8344	-15.7225	-245.763	-17.0696	-35.9434	
100	0.833333	-249.158	23.3874	-18.0313	-233.349	59.2926	-31.2811	-209.697	79.0035	-44.6376	-182.49	83.0653	-56.5227	-215.731	13.8056	-97.1606	-193.431	28.2879	-114.926	-168.489	54.0658	-102.319	-193.837	-3.52785	-102.478	-170.748	16.5024	-118.054	-151.118	48.8233	-103.651	-181.576	-15.6427	-88.1822	-161.272	2.41403	-105.26	-144.022	34.0506	-93.6605	-165.783	-26.0875	-64.961	-147.294	-9.44478	-84.8968	-131.865	16.859	-85.2078	-209.86	-34.7668	-41.9216	-228.628	-42.5057	-12.3079	-246.146	-14.9243	-36.7501	
101	0.841667	-249.457	24.0117	-24.0937	-231.031	53.6074	-29.3283	-205.946	74.4514	-43.3782	-180.977	81.0826	-53.4954	-219.335	13.841	-99.3846	-200.933	30.8319	-117.153	-173.622	57.085	-111.472	-199.889	-5.02668	-100.013	-174.336	15.8026	-123.143	-153.428	42.8342	-119.861	-183.257	-15.4544	-90.3809	-160.596	2.30769	-109.482	-146.862	31.4256	-108.405	-165.353	-23.3858	-64.7858	-148.263	-9.31765	-84.5342	-128.613	14.3491	-92.9047	-210.334	-35.1037	-41.8332	-222.629	-43.5144	-15.5283	-246.834	-19.0146	-41.3156	
102	0.85	-251.817	21.3702	-26.2177	-229.481	53.8233	-35.0758	-202.366	70.715	-45.5669	-175.254	73.4953	-54.7589	-223.491	13.5388	-104.771	-206.127	32.6403	-120.958	-184.52	55.5996	-118.069	-200.495	-7.59816	-104.326	-185.135	13.4501	-129.056	-162.044	41.4591	-132.469	-182.09	-15.7323	-90.0393	-166.279	3.38246	-112.586	-150.294	31.8237	-115.642	-167.424	-18.4984	-64.9358	-147.094	-3.06386	-86.4751	-128.787	18.0788	-94.0234	-207.918	-35.0278	-43.163	-224.539	-43.0071	-17.5135	-244.946	-24.1209	-41.6538	
103	0.858333	-250.214	16.6885	-25.6028	-229.388	48.4477	-35.2141	-199.843	67.1578	-48.316	-171.326	64.1064	-57.6823	-224.573	9.6429	-104.026	-208.047	31.0387	-122.423	-190.388	59.142	-120.587	-204.17	-8.28308	-105.008	-185.661	11.4898	-131.225	-169.556	37.9547	-137.931	-186.351	-13.9572	-92.6082	-170.153	3.52966	-113.393	-155.87	36.3657	-115.743	-165.624	-15.8997	-67.1795	-146.967	3.78367	-85.0823	-133.397	30.1718	-90.8914	-207.924	-33.638	-43.9014	-223.061	-44.0408	-17.8332	-244.908	-25.7917	-41.3427	
104	0.866667	-252.797	14.9202	-23.9838	-227.51	45.5947	-38.2464	-196.58	61.4968	-51.6371	-167.422	52.0949	-60.6345	-226.568	8.46356	-104.289	-208.037	30.0964	-122.548	-190.002	58.4065	-120.522	-203.798	-10.3512	-103.846	-188.703	7.89034	-131.173	-170.592	41.3539	-138.957	-183.796	-15.215	-93.8837	-170.972	2.10251	-112.076	-161.404	38.3008	-110.353	-166.552	-11.9326	-63.0136	-147.886	11.1441	-79.7078	-139.084	39.8856	-79.1548	-206.998	-35.8961	-43.3783	-221.857	-48.2745	-12.4385	-248.385	-25.1464	-38.8737	
105	0.875	-250.287	14.8596	-26.865	-226.916	46.2292	-37.6332	-193.774	54.1351	-52.3907	-169.708	48.1564	-56.4792	-227.865	9.15186	-103.685	-209.253	25.6906	-121.567	-191.744	58.2151	-122.749	-208.367	-9.98342	-104.321	-190.133	5.51164	-130.56	-171.938	38.177	-139.21	-186.398	-16.8191	-87.9407	-169.665	4.64438	-111.976	-161.492	39.935	-103.121	-161.191	-10.223	-61.8736	-145.087	14.3872	-74.9003	-147.186	43.7391	-73.6318	-210.928	-33.4963	-42.5292	-224.566	-45.8182	-13.1348	-243.11	-25.3547	-40.9403	
106	0.883333	-251.366	18.4182	-25.7717	-225.57	49.8157	-36.8454	-189.746	54.5376	-52.2689	-163.57	37.7332	-56.1399	-223.306	8.77264	-105.585	-206.817	26.8472	-123.641	-188.249	53.9648	-122.117	-203.156	-12.2882	-106.326	-186.344	4.73194	-129.75	-164.344	36.5107	-135.928	-184.462	-18.5085	-88.3555	-164.733	-0.495342	-108.055	-157.644	32.8447	-98.9122	-159.26	-9.60603	-65.4418	-140.52	14.55	-71.2416	-143.463	47.8177	-65.2691	-205.566	-34.5197	-42.5764	-222.52	-46.133	-11.5463	-246.585	-24.3585	-38.861	
107	0.891667	-246.37	17.6138	-22.6092	-218.417	47.0085	-38.6849	-186.947	53.0785	-49.7476	-160.77	37.0207	-55.6063	-223.51	8.51425	-101.997	-203.662	25.6372	-122.272	-182.138	51.5432	-120.629	-200.484	-12.6054	-105.257	-182.213	5.37101	-130.222	-161.48	31.548	-133.438	-180.649	-20.5676	-89.3186	-160.728	-4.645	-107.794	-156.006	31.5558	-98.5273	-157.279	-14.0435	-63.9863	-140.802	10.9977	-71.1209	-142.03	41.9073	-64.8587	-204.196	-37.1399	-41.6668	-221.628	-46.3802	-11.7479	-244.547	-25.3639	-40.1003	
108	0.9	-245.553	19.5598	-21.3434	-217.607	46.525	-34.3697	-185.692	57.1141	-48.2851	-161.088	42.6106	-52.4111	-222.601	10.9963	-101.07	-203.451	27.861	-121.361	-182.697	56.4076	-121.515	-202.991	-10.8151	-105.214	-180.812	6.70858	-129.64	-160.593	35.3731	-133.02	-179.641	-20.9154	-91.2841	-161.063	-5.49485	-107.717	-152.382	29.714	-98.1646	-156.329	-15.4411	-62.4548	-136.304	10.5117	-69.8353	-137.664	37.6961	-66.836	-207.741	-35.834	-42.0813	-223.115	-46.197	-14.5138	-241.93	-21.7648	-38.939	
109	0.908333	-245.616	20.7436	-23.1736	-222.246	53.3263	-33.0825	-189.878	61.3884	-45.2198	-163.401	47.4257	-53.4762	-221.466	12.4323	-101.353	-207.7	28.2094	-119.938	-187.413	52.9053	-123.107	-205.293	-10.1637	-100.064	-184.084	5.84802	-129.599	-160.842	31.0865	-132.31	-183.13	-20.2968	-89.4533	-162.339	-2.60286	-108.629	-149.544	25.513	-103.864	-156.56	-17.7255	-62.0644	-139.327	7.09106	-73.0319	-131.775	34.8836	-68.2672	-209.514	-35.741	-38.4664	-226.779	-46.4449	-12.5496	-247.026	-21.8666	-36.6395	
110	0.916667	-252.6	21.8584	-20.4439	-226.633	55.1041	-33.9145	-196.747	66.7222	-46.1794	-172.251	56.1215	-53.2546	-226.793	11.7003	-101.229	-208.25	28.7171	-122.063	-191.64	51.2441	-126.977	-207.695	-9.54157	-103.979	-185.822	5.01811	-129.845	-163.563	36.224	-136.057	-186.399	-19.3787	-89.7886	-165.693	-5.80972	-109.562	-148.486	23.8918	-110.886	-162.282	-18.3952	-62.9253	-140.794	0.740365	-74.0188	-131.576	26.878	-75.5692	-211.024	-35.9351	-38.9434	-226.939	-46.5282	-11.795	-250.274	-21.7515	-37.5308	
111	0.925	-253.421	20.8593	-22.237	-233.52	52.4169	-28.797	-206.484	71.4693	-43.7456	-179.168	72.599	-54.1921	-230.123	11.7587	-102.074	-214.517	26.5964	-123.593	-193.057	52.3743	-129.597	-210.675	-9.60551	-105.509	-188.802	3.75166	-129.097	-165.148	33.6058	-137.472	-184.65	-19.8742	-89.4642	-165.021	-8.05134	-110.127	-149.016	20.2444	-116.537	-164.299	-22.405	-59.79	-140.734	-8.16538	-74.8992	-122.911	18.4172	-83.6401	-212.494	-33.7476	-44.6892	-229.025	-44.9067	-13.5615	-248.297	-23.3516	-35.8971	
